<svg width="101" height="50" viewBox="0 0 101 50" fill="none" xmlns="http://www.w3.org/2000/svg">
<g clip-path="url(#clip0_55_8)">
<path d="M25.7217 4.12717C25.7471 4.27774 25.7668 4.47148 25.7807 4.7095C25.7934 4.94752 25.7471 5.39146 25.6432 6.04242C25.538 6.69338 25.3693 7.29452 25.1336 7.84474C24.899 8.39606 24.4738 8.94628 23.8602 9.49649C23.2466 10.0478 22.4817 10.4475 21.5677 10.6977C21.0188 10.8482 20.3001 10.9291 19.4126 10.9412C18.524 10.9545 17.7799 10.9357 17.179 10.8848L16.2777 10.7718L14.162 23.4999C13.9794 24.8516 13.9655 25.8713 14.1227 26.5599C14.2798 27.2485 14.5144 27.699 14.8275 27.9116C15.1407 28.1242 15.3891 28.2935 15.5717 28.4186C15.7543 28.5437 15.7936 28.7065 15.6896 28.9069C15.3498 29.5822 14.5664 30.2276 13.3381 30.8398C12.1098 31.4531 10.9346 31.7598 9.81146 31.7598C8.13943 31.7598 6.84641 31.2461 5.93239 30.221C5.01723 29.1947 4.74337 27.6437 5.10967 25.5657L8.20529 10.2471C5.59267 10.1973 3.18921 10.3722 0.994884 10.773C0.864311 10.773 0.785736 10.711 0.760315 10.5848C0.733738 10.5604 0.701384 10.3965 0.662096 10.0965C0.622809 9.79651 0.628586 9.39575 0.68174 8.89535C0.733738 8.39495 0.858534 7.86909 1.05382 7.31887C1.25025 6.76866 1.62811 6.19851 2.18969 5.61066C2.75127 5.0228 3.46306 4.52794 4.32508 4.12717C5.57881 3.55149 6.86605 3.24483 8.18449 3.20719C9.50293 3.16955 11.6325 3.28248 14.5722 3.54485C17.5106 3.80723 20.2873 3.95226 22.9 3.97661L25.4467 3.93897C25.6039 3.93897 25.6951 4.00207 25.7206 4.12717H25.7217Z" fill="#454545"/>
<path d="M41.2403 23.4623C41.0045 24.8893 40.9468 25.9775 41.0635 26.7281C41.1813 27.4787 41.3835 27.9614 41.6713 28.174C41.959 28.3865 42.1866 28.5559 42.3576 28.681C42.5275 28.8061 42.5599 28.9689 42.4559 29.1692C42.1161 29.8202 41.424 30.4269 40.3794 30.9904C39.3337 31.5539 38.2891 31.8351 37.2445 31.8351C35.8856 31.8351 34.7948 31.4531 33.9721 30.6904C33.1494 29.9276 32.738 28.8825 32.738 27.5551C30.6477 30.3837 28.3228 31.7974 25.7622 31.7974C23.4361 31.7974 21.7652 30.7645 20.7461 28.6998C19.7269 26.6351 19.4669 24.2505 19.9626 21.5481C20.4583 18.7948 21.6023 16.4113 23.391 14.3964C25.1798 12.3815 27.2897 11.3741 29.7198 11.3741C32.1498 11.3741 33.9524 12.5631 34.893 14.9411L35.3633 12.3505C35.3633 12.3007 35.383 12.2564 35.4222 12.2188C35.4615 12.1812 35.5066 12.1623 35.5598 12.1623L35.599 12.1247H43.4369L43.5548 12.2376V12.3129C42.3264 18.0199 41.5557 21.7363 41.2426 23.4634L41.2403 23.4623ZM30.0329 26.6163C30.9735 26.6163 31.7893 26.1414 32.4826 25.1893C33.1748 24.2383 33.652 23.025 33.9131 21.547C34.1743 20.0702 34.135 18.8502 33.7953 17.8859C33.4556 16.9228 32.8281 16.4401 31.9141 16.4401C31.0001 16.4401 30.1901 16.9228 29.4841 17.8859C28.7792 18.8502 28.295 20.0702 28.0339 21.547C27.7727 23.0239 27.812 24.2383 28.1518 25.1893C28.4915 26.1403 29.1178 26.6163 30.0329 26.6163Z" fill="#454545"/>
<path d="M73.4514 12.1236H78.1936L78.2722 12.3118L77.684 15.4659C77.6575 15.5666 77.5928 15.6286 77.4876 15.6541H72.7847L71.3738 23.4634C71.0606 25.2159 71.2629 26.3861 71.9816 26.9739C72.6992 27.5629 73.7645 27.781 75.1754 27.6315C75.4632 27.6072 75.6388 27.7002 75.7046 27.9127C75.7694 28.1253 75.7104 28.3445 75.5279 28.5692C74.7698 29.5955 73.6917 30.4025 72.2947 30.9904C70.8966 31.5782 69.4799 31.8727 68.0436 31.8727C66.1878 31.8727 64.7908 31.3535 63.8502 30.3151C62.9096 29.2766 62.6092 27.8563 62.9489 26.0539L65.4183 12.7258C65.6008 11.6996 65.2877 10.98 64.4777 10.567C63.6677 10.1541 62.7398 10.1043 61.6952 10.4165C60.6506 10.7298 59.9053 11.2866 59.4616 12.0871C60.4022 12.438 61.2053 12.9639 61.872 13.6635C62.5387 14.3643 62.7929 15.1404 62.6358 15.9917C62.4786 16.9183 61.9887 17.7066 61.166 18.3575C60.3433 19.0085 59.3692 19.334 58.246 19.334C56.9923 19.334 56.0378 18.9155 55.3849 18.0763C54.7321 17.2383 54.4836 16.2552 54.6408 15.1293H54.3669C53.8181 15.1548 53.3351 15.354 52.9168 15.7304C52.4985 16.1057 52.2512 16.4943 52.1726 16.894C52.094 17.4198 52.2315 17.8704 52.584 18.2457C52.9364 18.621 53.3871 18.9155 53.9359 19.1281C54.4848 19.3406 55.1897 19.5731 56.0517 19.8222C56.3128 19.8731 56.5081 19.9229 56.6398 19.9728C60.6102 21.1241 62.3481 23.0515 61.8512 25.755C61.5901 27.182 60.832 28.3777 59.5783 29.3408C58.3246 30.3051 56.953 30.9682 55.4635 31.3303C53.9741 31.6923 52.4072 31.8749 50.7606 31.8749C49.4283 31.8749 48.1352 31.7366 46.8815 31.462C45.6278 31.1863 44.53 30.6616 43.5895 29.8855C42.6489 29.1106 42.2837 28.1463 42.4917 26.9949C42.6743 26.044 43.1769 25.2369 44.0008 24.5738C44.8235 23.9106 45.7838 23.5785 46.8815 23.5785C47.5344 23.5785 48.1549 23.6483 48.743 23.7855C49.3312 23.9239 49.6501 24.0667 49.7033 24.2173C49.7553 24.4177 49.7749 24.5494 49.7622 24.6114C49.7483 24.6745 49.7091 24.8428 49.6443 25.1185C49.5785 25.3941 49.5334 25.6067 49.5068 25.7572C49.3763 26.4835 49.4872 27.047 49.8396 27.4466C50.1921 27.8474 50.7074 28.0478 51.388 28.0478C52.6672 28.0478 53.4391 27.4843 53.7002 26.3584C53.7256 26.1082 53.7129 25.8768 53.6609 25.6642C53.6078 25.4517 53.4911 25.2646 53.3085 25.1007C53.1259 24.938 52.9422 24.7941 52.7596 24.669C52.577 24.5439 52.302 24.4121 51.9369 24.2749C51.5706 24.1376 51.2644 24.0247 51.0159 23.9372C50.7675 23.8497 50.4081 23.7368 49.9378 23.5995C49.4676 23.4623 49.0885 23.3427 48.802 23.2431C47.3645 22.7172 46.2286 21.9854 45.3932 21.0466C44.5566 20.1078 44.2573 18.9509 44.4919 17.5737L44.5312 17.4608C44.8709 15.6341 46.0657 14.1573 48.1168 13.0303C50.1678 11.9044 52.2905 11.3409 54.4848 11.3409C54.9551 11.3409 55.2948 11.3542 55.504 11.3785C56.2354 9.87622 57.5088 8.56212 59.3252 7.43622C61.1406 6.31033 63.2887 5.74683 65.7719 5.74683C68.6976 5.74683 70.7879 6.37897 72.0417 7.64325C73.2954 8.90753 73.7657 10.4032 73.4526 12.1302L73.4514 12.1236Z" fill="#454545"/>
<path d="M100.883 12.1612H93.3193C93.2153 12.1867 93.1494 12.2498 93.124 12.3494L91.3214 22.2234C91.1111 23.2752 90.7333 24.1763 90.1844 24.9269C89.4264 25.9775 88.6822 26.4536 87.9508 26.3528C87.1928 26.2787 86.9316 25.5524 87.1673 24.1763L88.4996 17.1176C88.8128 15.3906 88.5124 14.0078 87.5984 12.9683C86.6832 11.9298 85.404 11.4106 83.7574 11.4106C82.7128 11.4106 81.674 11.6918 80.6422 12.2553C79.6103 12.8188 78.9112 13.4255 78.5461 14.0765C78.4409 14.2768 78.4998 14.4396 78.7228 14.5647C78.9436 14.6898 79.2186 14.8592 79.5456 15.0717C79.8714 15.2843 80.1072 15.7659 80.2504 16.5165C80.3937 17.2671 80.3487 18.3564 80.1141 19.7834L79.0949 25.4151C78.7552 27.2418 79.0025 28.7319 79.8391 29.8822C80.6745 31.0336 81.8381 31.6092 83.3264 31.6092C84.5027 31.6092 85.7299 31.2583 87.0102 30.5586C88.1507 29.9342 89.1883 28.991 90.122 27.73C89.0312 29.5766 87.9184 31.3745 86.3019 32.868C85.3705 33.7282 84.3352 34.4976 83.2259 35.1629C83.2166 35.1607 83.2086 35.1585 83.2005 35.1563C82.4425 35.608 81.6579 36.0132 80.8629 36.3763C80.849 36.3841 80.834 36.3896 80.8189 36.3962C79.7131 36.8723 78.5634 37.2509 77.3986 37.5199C74.5526 38.1775 71.5864 38.4266 68.6803 38.7211C65.8134 39.0111 62.8773 39.2182 60.0289 39.227C55.2798 39.2425 50.5387 38.9126 45.8103 38.5218C37.7252 37.8531 29.5026 37.2542 21.5596 38.8429C13.4513 40.4636 5.86077 44.3915 0 50C6.22937 44.9274 14.6854 43.228 22.8202 42.4387C32.8351 41.4677 42.9666 41.6083 52.948 42.8582C58.8145 43.5933 64.6452 44.7104 70.558 44.9052C76.4707 45.1001 82.5811 44.3074 87.7023 41.4711C89.728 40.3485 91.6981 38.9945 93.3332 37.4158C94.3962 36.3896 95.3299 35.2504 96.0937 34.0094C96.118 33.9728 96.1434 33.9363 96.1665 33.8998C96.1688 33.8987 96.1688 33.8965 96.1688 33.8965C96.2323 33.7902 96.2947 33.6839 96.356 33.5754C96.3987 33.5001 96.4415 33.4248 96.4808 33.3496C96.5085 33.2997 96.5339 33.2488 96.5605 33.199C96.5617 33.1968 96.5628 33.1946 96.564 33.1912C96.683 32.9698 96.7962 32.7462 96.9037 32.5181C97.1856 31.9225 97.4271 31.3081 97.6282 30.6815C97.6617 30.5763 97.6941 30.4712 97.7253 30.3649C97.8882 29.8213 98.0211 29.2689 98.1193 28.7142C98.1401 28.5902 98.1609 28.4662 98.1794 28.3423C98.1794 28.3423 98.1817 28.3279 98.1852 28.3068V28.3035C98.1898 28.2814 98.1944 28.2537 98.2002 28.2249L98.221 28.1076L101 12.3483V12.273L100.883 12.1601V12.1612Z" fill="#454545"/>
<path fill-rule="evenodd" clip-rule="evenodd" d="M43.0799 2.47542C42.7852 0.233591 39.6607 -0.799311 37.8546 1.4713C37.8546 1.4713 38.0199 0.766095 38.7236 0.312193C38.1816 0.0841357 36.9522 -0.303341 36.0959 0.408509C34.9682 1.3462 35.6153 2.57063 35.6153 2.57063C35.6153 2.57063 33.5746 3.33341 34.2055 5.08259C34.3072 5.36378 34.5002 5.60955 34.7082 5.80551C34.9312 6.01585 35.2802 6.007 35.5101 5.80329C36.9799 4.50359 40.644 3.51275 42.8904 5.81104C41.2657 4.68625 37.7079 4.70286 36.037 6.03799C35.8117 6.21845 35.7008 6.49854 35.725 6.77863C35.7505 7.07865 35.7805 7.46723 35.799 7.65765C35.8648 8.38278 35.9873 8.94407 36.0948 9.32601C36.1699 9.59171 36.4923 9.69356 36.7269 9.53414C37.9679 8.69276 40.7192 8.20786 41.8955 8.64295C40.5424 9.74117 38.6277 9.94044 37.6836 9.92273C38.9062 10.1729 41.2415 9.59725 42.3935 8.75476C42.5229 8.78687 42.6419 8.81786 42.7494 8.84775C40.9641 10.4298 38.2406 10.4121 37.0007 10.2427C38.5953 10.7696 42.063 10.2294 43.2289 9.13006C43.2948 9.06806 43.3191 8.97728 43.3017 8.88982C43.244 8.6042 43.1238 7.92002 43.1769 7.33217C43.192 7.16057 43.3699 7.0399 43.5432 7.08418C46.7613 7.90563 46.915 3.24927 43.0833 2.47653L43.0799 2.47542Z" fill="#454545"/>
</g>
<defs>
<clipPath id="clip0_55_8">
<rect width="101" height="50" fill="white"/>
</clipPath>
</defs>
</svg>
